<svg width="72" height="72" viewBox="0 0 72 72" fill="none" xmlns="http://www.w3.org/2000/svg">
<path fill-rule="evenodd" clip-rule="evenodd" d="M0 5.36217C0 2.91149 2.09309 0.924805 4.67535 0.924805H12.8201C14.6579 0.924805 16.439 1.52928 17.86 2.63532L20.3377 4.5637L20.3996 4.61734C20.4568 4.59904 20.514 4.58115 20.5713 4.5637C25.0413 3.20485 30.4647 2.94643 36 2.94643C41.5353 2.94643 46.9587 3.20485 51.4287 4.5637C51.486 4.58115 51.5432 4.59904 51.6004 4.61734L51.6623 4.5637L54.14 2.63532C55.561 1.52928 57.3421 0.924805 59.1799 0.924805H67.3247C69.9069 0.924805 72 2.91149 72 5.36217V8.10527C72 10.2276 71.0581 12.2518 69.4051 13.6812L67.4063 15.4098C66.4305 16.2537 65.2593 16.8678 63.9872 17.2026L63.5144 17.3271C65.3665 21.5214 66.3897 26.0047 66.3897 29.6316C66.3897 44.2211 56.8785 50.5221 48.4981 56.074C41.8984 60.4463 36 64.3537 36 71.479C36 64.3537 30.1016 60.4463 23.5019 56.074C15.1215 50.5221 5.61031 44.2211 5.61031 29.6316C5.61031 26.0047 6.6335 21.5214 8.48559 17.3271L8.01278 17.2026C6.74068 16.8678 5.5695 16.2537 4.59373 15.4098L2.59494 13.6812C0.941942 12.2518 0 10.2276 0 8.10527V5.36217ZM42.078 41.5591C42.078 42.2562 41.7577 42.9245 41.1879 43.4175C40.618 43.9103 39.845 44.1872 39.0389 44.1872C38.3431 44.1872 37.6718 43.9807 37.1346 43.6071C38.049 45.9301 40.3889 48.1312 43.9481 44.5915C47.0901 41.3025 43.8084 34.3654 40.6112 30.2489C39.5455 28.8768 37.796 28.2164 36 28.2164C34.204 28.2164 32.4545 28.8768 31.3888 30.2489C28.1916 34.3654 24.9099 41.3025 28.0519 44.5915C31.6111 48.1312 33.951 45.9301 34.8654 43.6071C34.3283 43.9807 33.6569 44.1872 32.9611 44.1872C32.155 44.1872 31.382 43.9103 30.8121 43.4175C30.2423 42.9245 29.922 42.2562 29.922 41.5591H42.078ZM24.3623 21.0242H15.8962L22.5683 26.0947C24.0365 27.2103 26.1826 26.8537 27.091 25.3429C28.2381 23.4355 26.7146 21.0242 24.3623 21.0242ZM47.6377 21.0242H56.1039L49.4317 26.0947C47.9635 27.2103 45.8174 26.8537 44.909 25.3429C43.7619 23.4355 45.2854 21.0242 47.6377 21.0242Z" fill="#72B800"/>
</svg>
